<svg class="animated" id="freepik_stories-qr-code" xmlns="http://www.w3.org/2000/svg" viewBox="0 0 500 500" version="1.1" xmlns:xlink="http://www.w3.org/1999/xlink" xmlns:svgjs="http://svgjs.com/svgjs"><style>svg#freepik_stories-qr-code:not(.animated) .animable {opacity: 0;}svg#freepik_stories-qr-code.animated #freepik--background-complete--inject-4 {animation: 6s Infinite  linear shake;animation-delay: 0s;}svg#freepik_stories-qr-code.animated #freepik--Device--inject-4 {animation: 6s Infinite  linear floating;animation-delay: 0s;}svg#freepik_stories-qr-code.animated #freepik--qr-code--inject-4 {animation: 6s Infinite  linear floating;animation-delay: 0s;}            @keyframes shake {                10%, 90% {                    transform: translate3d(-1px, 0, 0);                  }                  20%, 80% {                    transform: translate3d(2px, 0, 0);                  }                  30%, 50%, 70% {                    transform: translate3d(-4px, 0, 0);                  }                  40%, 60% {                    transform: translate3d(4px, 0, 0);                  }            }                    @keyframes floating {                0% {                    opacity: 1;                    transform: translateY(0px);                }                50% {                    transform: translateY(-10px);                }                100% {                    opacity: 1;                    transform: translateY(0px);                }            }        </style><g id="freepik--background-complete--inject-4" class="animable" style="transform-origin: 260.633px 146.169px;"><polygon points="134.51 193.64 134.51 201.14 142.01 201.14 142.01 193.64 142.01 186.15 134.51 186.15 134.51 193.64" style="fill: rgb(235, 235, 235); transform-origin: 138.26px 193.645px;" id="elb5q6rbpx53" class="animable"></polygon><rect x="134.51" y="148.67" width="7.5" height="7.5" style="fill: rgb(235, 235, 235); transform-origin: 138.26px 152.42px;" id="elmecp2ntshr7" class="animable"></rect><rect x="180.83" y="231.2" width="7.5" height="7.5" style="fill: rgb(235, 235, 235); transform-origin: 184.58px 234.95px;" id="elho6vo9x63jk" class="animable"></rect><polygon points="142.01 163.66 142.01 171.15 134.51 171.15 134.51 178.65 142.01 178.65 142.01 186.15 149.51 186.15 157 186.15 157 193.64 164.5 193.64 164.5 186.15 171.99 186.15 171.99 178.65 171.99 171.15 164.5 171.15 164.5 178.65 157 178.65 149.51 178.65 149.51 171.15 149.51 163.66 149.51 156.16 142.01 156.16 142.01 163.66" style="fill: rgb(235, 235, 235); transform-origin: 153.25px 174.9px;" id="elh9i2l3fy495" class="animable"></polygon><polygon points="157 148.67 149.51 148.67 149.51 156.16 157 156.16 164.5 156.16 164.5 148.67 157 148.67" style="fill: rgb(235, 235, 235); transform-origin: 157.005px 152.415px;" id="elwhs62v7p62i" class="animable"></polygon><polygon points="190.73 208.93 194.76 208.93 194.76 201.43 190.73 201.43 186.71 201.43 186.71 208.93 190.73 208.93" style="fill: rgb(235, 235, 235); transform-origin: 190.735px 205.18px;" id="elepg3hzdy14j" class="animable"></polygon><rect x="164.5" y="156.16" width="7.5" height="7.5" style="fill: rgb(235, 235, 235); transform-origin: 168.25px 159.91px;" id="elnbyjmj7fr9" class="animable"></rect><rect x="216.97" y="186.15" width="7.5" height="7.5" style="fill: rgb(235, 235, 235); transform-origin: 220.72px 189.9px;" id="ell6qu75axaoc" class="animable"></rect><rect x="224.47" y="103.69" width="7.5" height="7.5" style="fill: rgb(235, 235, 235); transform-origin: 228.22px 107.44px;" id="el9rkoecl2cop" class="animable"></rect><polygon points="186.99 163.66 186.99 156.16 194.48 156.16 194.48 148.67 186.99 148.67 186.99 141.17 179.49 141.17 179.49 148.67 171.99 148.67 171.99 156.16 179.49 156.16 179.49 163.66 179.49 171.15 179.49 178.65 179.49 186.15 186.99 186.15 186.99 178.65 186.99 171.15 194.48 171.15 194.48 163.66 186.99 163.66" style="fill: rgb(235, 235, 235); transform-origin: 183.235px 163.66px;" id="eltfxjc0yblcr" class="animable"></polygon><polygon points="224.47 238.62 231.96 238.62 231.96 231.12 224.47 231.12 216.97 231.12 216.97 238.62 224.47 238.62" style="fill: rgb(235, 235, 235); transform-origin: 224.465px 234.87px;" id="els6x87p8av28" class="animable"></polygon><rect x="209.47" y="103.69" width="7.5" height="7.5" style="fill: rgb(235, 235, 235); transform-origin: 213.22px 107.44px;" id="el4yhlciiciov" class="animable"></rect><polygon points="215.1 163.66 215.1 156.16 207.6 156.16 207.6 148.67 200.1 148.67 200.1 156.16 200.1 163.66 192.61 163.66 192.61 171.15 200.1 171.15 207.6 171.15 207.6 163.66 215.1 163.66" style="fill: rgb(235, 235, 235); transform-origin: 203.855px 159.91px;" id="elnq61m41n5hs" class="animable"></polygon><rect x="249.91" y="148.67" width="7.5" height="7.5" style="fill: rgb(235, 235, 235); transform-origin: 253.66px 152.42px;" id="elundaouscfni" class="animable"></rect><rect x="172.21" y="186.15" width="7.5" height="7.5" style="fill: rgb(235, 235, 235); transform-origin: 175.96px 189.9px;" id="el52bnkogigrf" class="animable"></rect><polygon points="209.47 141.17 209.47 133.67 216.97 133.67 216.97 126.18 224.47 126.18 231.96 126.18 231.96 118.68 224.47 118.68 224.47 111.19 216.97 111.19 216.97 118.68 209.47 118.68 209.47 126.18 201.98 126.18 201.98 133.67 194.48 133.67 194.48 141.17 201.98 141.17 209.47 141.17" style="fill: rgb(235, 235, 235); transform-origin: 213.22px 126.18px;" id="el3ib8ev0ngdy" class="animable"></polygon><polygon points="209.47 193.64 209.47 186.15 216.97 186.15 216.97 178.65 209.47 178.65 201.98 178.65 201.98 186.15 194.48 186.15 194.48 193.64 201.98 193.64 209.47 193.64" style="fill: rgb(235, 235, 235); transform-origin: 205.725px 186.145px;" id="elmvra8f7s44" class="animable"></polygon><polygon points="231.96 223.62 231.96 216.13 224.47 216.13 216.97 216.13 216.97 208.63 209.47 208.63 209.47 216.13 201.98 216.13 201.98 223.62 194.48 223.62 186.99 223.62 186.99 231.12 194.48 231.12 201.98 231.12 209.47 231.12 209.47 223.62 216.97 223.62 216.97 231.12 224.47 231.12 224.47 223.62 231.96 223.62" style="fill: rgb(235, 235, 235); transform-origin: 209.475px 219.875px;" id="el2pc07gz7o5" class="animable"></polygon><polygon points="201.98 111.19 201.98 103.69 194.48 103.69 186.99 103.69 186.99 111.19 179.49 111.19 179.49 118.68 186.99 118.68 194.48 118.68 194.48 111.19 201.98 111.19" style="fill: rgb(235, 235, 235); transform-origin: 190.735px 111.185px;" id="el4vogwsqggmw" class="animable"></polygon><rect x="194.48" y="118.68" width="7.5" height="7.5" style="fill: rgb(235, 235, 235); transform-origin: 198.23px 122.43px;" id="elsikh5srt2x" class="animable"></rect><polygon points="220.72 148.67 213.22 148.67 213.22 156.16 213.22 163.66 213.22 171.15 220.72 171.15 228.22 171.15 228.22 163.66 220.72 163.66 220.72 156.16 228.22 156.16 228.22 148.67 235.71 148.67 235.71 141.17 228.22 141.17 228.22 133.67 220.72 133.67 220.72 141.17 220.72 148.67" style="fill: rgb(235, 235, 235); transform-origin: 224.465px 152.41px;" id="el8t5ecrzvtua" class="animable"></polygon><rect x="186.99" y="126.18" width="7.5" height="7.5" style="fill: rgb(235, 235, 235); transform-origin: 190.74px 129.93px;" id="eluvzdnjp6vvi" class="animable"></rect><polygon points="216.97 201.14 216.97 208.63 224.47 208.63 231.96 208.63 231.96 201.14 239.46 201.14 246.96 201.14 246.96 193.64 239.46 193.64 231.96 193.64 224.47 193.64 224.47 201.14 216.97 201.14" style="fill: rgb(235, 235, 235); transform-origin: 231.965px 201.135px;" id="eletti7iuy0xd" class="animable"></polygon><rect x="249.91" y="171.15" width="7.5" height="7.5" style="fill: rgb(235, 235, 235); transform-origin: 253.66px 174.9px;" id="el91rs6gdh79" class="animable"></rect><rect x="224.47" y="178.65" width="7.5" height="7.5" style="fill: rgb(235, 235, 235); transform-origin: 228.22px 182.4px;" id="elo32cikedhf" class="animable"></rect><polygon points="250.7 156.16 243.21 156.16 235.71 156.16 235.71 163.66 243.21 163.66 243.21 171.15 250.7 171.15 250.7 163.66 250.7 156.16" style="fill: rgb(235, 235, 235); transform-origin: 243.205px 163.655px;" id="el199v5mptz8p" class="animable"></polygon><rect x="239.46" y="178.65" width="7.5" height="7.5" style="fill: rgb(235, 235, 235); transform-origin: 243.21px 182.4px;" id="el4xajgcyn7ne" class="animable"></rect><path d="M164.5,223.77H187V193.63H156.86v7.51h-7.35v7.49h7.35v7.5h-7.35v7.5h7.35v.14H157v7.35h-7.49v15H157v-7.5h7.5V223.77Zm16.72-24.36v18.74H162.48V199.41Z" style="fill: rgb(235, 235, 235); transform-origin: 168.255px 219.875px;" id="el91fwlauvl47" class="animable"></path><polygon points="261.95 193.64 269.44 193.64 269.44 186.15 261.95 186.15 254.45 186.15 246.96 186.15 246.96 193.64 254.45 193.64 261.95 193.64" style="fill: rgb(235, 235, 235); transform-origin: 258.2px 189.895px;" id="el8d7d5c2pr2d" class="animable"></polygon><polygon points="261.95 163.66 269.44 163.66 269.44 156.16 269.44 148.67 261.95 148.67 261.95 156.16 261.95 163.66" style="fill: rgb(235, 235, 235); transform-origin: 265.695px 156.165px;" id="eltfkkjea4jnh" class="animable"></polygon><polygon points="202.26 201.43 194.76 201.43 194.76 208.93 194.76 216.42 202.26 216.42 202.26 208.93 202.26 201.43" style="fill: rgb(235, 235, 235); transform-origin: 198.51px 208.925px;" id="elb7t6e2lmako" class="animable"></polygon><rect x="269.44" y="193.64" width="7.5" height="7.5" style="fill: rgb(235, 235, 235); transform-origin: 273.19px 197.39px;" id="eld2is4kftih" class="animable"></rect><polygon points="276.94 178.65 276.94 171.15 269.44 171.15 269.44 178.65 269.44 186.15 276.94 186.15 276.94 178.65" style="fill: rgb(235, 235, 235); transform-origin: 273.19px 178.65px;" id="eli41u8jgp9l" class="animable"></polygon><polygon points="142.01 231.12 134.51 231.12 134.51 238.62 134.51 246.12 142.01 246.12 142.01 238.62 142.01 231.12" style="fill: rgb(235, 235, 235); transform-origin: 138.26px 238.62px;" id="elsx7qzjzrzc" class="animable"></polygon><path d="M276.94,141.17V103.69H239.46v37.48Zm-31.86-5.62V109.31h26.24v26.24Z" style="fill: rgb(235, 235, 235); transform-origin: 258.2px 122.43px;" id="el80jt2ntaxa7" class="animable"></path><rect x="250.7" y="114.93" width="14.99" height="14.99" style="fill: rgb(235, 235, 235); transform-origin: 258.195px 122.425px;" id="eltih32svph0i" class="animable"></rect><path d="M276.94,208.63H239.46v37.49h37.48Zm-31.86,31.86V214.26h26.24v26.23Z" style="fill: rgb(235, 235, 235); transform-origin: 258.2px 227.375px;" id="el95s6zg5dwzh" class="animable"></path><rect x="250.7" y="219.88" width="14.99" height="14.99" style="fill: rgb(235, 235, 235); transform-origin: 258.195px 227.375px;" id="el4aep7ptvtzb" class="animable"></rect><path d="M134.42,103.69v37.48H171.9V103.69Zm31.86,5.62v26.24H140V109.31Z" style="fill: rgb(235, 235, 235); transform-origin: 153.16px 122.43px;" id="elirfun8amhqh" class="animable"></path><rect x="145.66" y="114.93" width="14.99" height="14.99" style="fill: rgb(235, 235, 235); transform-origin: 153.155px 122.425px;" id="el7zahbpl1mj2" class="animable"></rect><g id="elr2vc3deimp"><circle cx="71.06" cy="250.48" r="3.55" style="fill: rgb(235, 235, 235); transform-origin: 71.06px 250.48px; transform: rotate(-75.73deg);" class="animable"></circle></g><path d="M64,245.94a9.84,9.84,0,0,1,14.23-.19c1.81,1.83,4.64-1,2.83-2.81a13.87,13.87,0,0,0-19.87.16c-1.77,1.86,1,4.7,2.81,2.84Z" style="fill: rgb(235, 235, 235); transform-origin: 71.1318px 242.687px;" id="elu6a1oj76ifh" class="animable"></path><path d="M51.92,229.42c5.39-4.66,11.83-7.6,19-7.62a28.22,28.22,0,0,1,19.43,7.44c1.87,1.76,4.71-1.05,2.84-2.81A32.42,32.42,0,0,0,71,217.81c-8.3,0-15.68,3.41-21.88,8.78-2,1.68.87,4.5,2.81,2.83Z" style="fill: rgb(235, 235, 235); transform-origin: 71.1216px 223.87px;" id="elx8rjxwa0cps" class="animable"></path><path d="M56.67,238.57a19.53,19.53,0,0,1,28.69-.41c1.8,1.85,4.63-1,2.84-2.8a23.51,23.51,0,0,0-34.34.38c-1.74,1.88,1.06,4.72,2.81,2.83Z" style="fill: rgb(235, 235, 235); transform-origin: 71.0411px 233.645px;" id="elfjtekdkxa1u" class="animable"></path><path d="M228.1,56.43c.6-4.38-5.59-8-10.24-8.37-2.22-.18-4.52.16-6.62-.57-4.56-1.59-6.38-7.47-10.82-9.34-3.32-1.4-7.15-.16-10.37,1.46s-6.4,3.66-10,3.89c-3.13.2-6.53-1-9.27.57-2,1.14-3.11,3.49-5,4.88s-4.24,1.65-6.52,1.77-4.65.15-6.72,1.1-3.8,3.15-3.37,5.39Z" style="fill: rgb(235, 235, 235); transform-origin: 188.622px 47.3758px;" id="ela3dtitbm1we" class="animable"></path><path d="M108.64,130.55c.54-3.93-5-7.17-9.18-7.5-2-.16-4,.14-5.94-.52-4.08-1.42-5.71-6.69-9.69-8.37-3-1.26-6.41-.14-9.29,1.31s-5.74,3.28-9,3.49c-2.81.18-5.85-.86-8.31.51-1.83,1-2.78,3.13-4.47,4.37s-3.8,1.47-5.85,1.59a16.56,16.56,0,0,0-6,1c-1.86.85-3.4,2.83-3,4.84Z" style="fill: rgb(245, 245, 245); transform-origin: 73.2614px 122.442px;" id="elpwdiskh3xvc" class="animable"></path><path d="M483.38,127.77c.58-4.21-5.36-7.68-9.83-8-2.13-.17-4.34.16-6.36-.55-4.37-1.52-6.12-7.17-10.38-9-3.19-1.34-6.86-.15-9.95,1.41s-6.15,3.51-9.6,3.74c-3,.19-6.27-.93-8.9.54-2,1.09-3,3.35-4.79,4.68s-4.07,1.58-6.26,1.7-4.46.14-6.45,1.06-3.65,3-3.23,5.17Z" style="fill: rgb(245, 245, 245); transform-origin: 445.492px 119.079px;" id="elur4xk9d8lq" class="animable"></path></g><g id="freepik--Floor--inject-4" class="animable" style="transform-origin: 250px 477.06px;"><path d="M474.46,477.06c0,.14-100.5.26-224.45.26s-224.47-.12-224.47-.26S126,476.8,250,476.8,474.46,476.91,474.46,477.06Z" style="fill: rgb(38, 50, 56); transform-origin: 250px 477.06px;" id="el6b6xr6y0opr" class="animable"></path></g><g id="freepik--Plants--inject-4" class="animable" style="transform-origin: 291.056px 455.052px;"><path d="M420.7,433.07a8.14,8.14,0,0,1,4.21,4.77,14.3,14.3,0,0,1,.56,6.47c-.47,4.2-2.86,8.44-5.43,11.79-3.53-3.08-4.35-8.47-4.59-11.22-.38-4.36,1.58-12.46,5.25-11.81" style="fill: rgb(230, 33, 70); transform-origin: 420.509px 444.567px;" id="elwacdn9uc39p" class="animable"></path><path d="M424.15,463a7,7,0,0,1,2.24-6.6,9.23,9.23,0,0,1,6.8-2.12,3.86,3.86,0,0,1,3,1.34,3,3,0,0,1,0,3,6,6,0,0,1-2.23,2.19c-3.06,1.92-6.38,3.22-9.84,2.18" style="fill: rgb(230, 33, 70); transform-origin: 430.305px 458.799px;" id="el0e5b1eai7xht" class="animable"></path><path d="M419.62,475.9a5.86,5.86,0,0,1,.12-.86c.12-.61.26-1.39.43-2.33a24.2,24.2,0,0,1,2.41-7.45,14.92,14.92,0,0,1,5.34-5.68,10.15,10.15,0,0,1,2.18-1,5.25,5.25,0,0,1,.63-.16.61.61,0,0,1,.22,0,16,16,0,0,0-2.92,1.34,15.3,15.3,0,0,0-5.19,5.64,26.49,26.49,0,0,0-2.46,7.34c-.21,1-.38,1.77-.52,2.31A4,4,0,0,1,419.62,475.9Z" style="fill: rgb(38, 50, 56); transform-origin: 425.285px 467.155px;" id="elic5689vx9nb" class="animable"></path><path d="M419.75,439.37a1.42,1.42,0,0,1,0,.38c0,.28,0,.63.07,1.08.05.94.1,2.3.16,4,.11,3.36.19,8,.17,13.15s-.15,9.79-.29,13.15c-.06,1.68-.13,3-.19,4,0,.44,0,.8-.07,1.08a1.65,1.65,0,0,1-.05.38,1.59,1.59,0,0,1,0-.38c0-.28,0-.64,0-1.09,0-1,.06-2.33.1-4,.08-3.36.17-8,.19-13.14s0-9.78-.08-13.14c0-1.66-.05-3-.06-4,0-.44,0-.8,0-1.08A1.59,1.59,0,0,1,419.75,439.37Z" style="fill: rgb(38, 50, 56); transform-origin: 419.846px 457.98px;" id="elirjduwf2bfg" class="animable"></path><path d="M418,465.59a16.26,16.26,0,0,0-8.87-11.9c-1.18-.56-2.72-.93-3.7-.05s-.75,2.45-.27,3.68A13.87,13.87,0,0,0,418,465.93" style="fill: rgb(230, 33, 70); transform-origin: 411.374px 459.522px;" id="el71loxtn3ugr" class="animable"></path><path d="M409.74,457.67a4,4,0,0,1,.75.33,7.27,7.27,0,0,1,.85.45,12.25,12.25,0,0,1,1.08.68,12.84,12.84,0,0,1,1.23.93,15.58,15.58,0,0,1,1.32,1.19,17.72,17.72,0,0,1,2.49,3.21,17.4,17.4,0,0,1,1.65,3.72,18.49,18.49,0,0,1,.63,3.26c.06.47,0,.9.06,1.27a9.14,9.14,0,0,1,0,1,4.38,4.38,0,0,1-.09.81c-.07,0,.05-1.16-.16-3-.06-.46-.12-1-.24-1.51s-.27-1.1-.44-1.69a17.83,17.83,0,0,0-1.64-3.64,18.49,18.49,0,0,0-2.43-3.17,17.44,17.44,0,0,0-1.28-1.2,13.23,13.23,0,0,0-1.2-.94C410.78,458.22,409.71,457.73,409.74,457.67Z" style="fill: rgb(38, 50, 56); transform-origin: 414.777px 466.095px;" id="el0zpmc6t43jq" class="animable"></path><path d="M152.06,477.07a21.47,21.47,0,0,1-.69-2.85A62.27,62.27,0,0,0,146.76,461a25.33,25.33,0,0,1-1.24-2.66,12.53,12.53,0,0,1,1.56,2.49,45.35,45.35,0,0,1,4.65,13.36A13.54,13.54,0,0,1,152.06,477.07Z" style="fill: rgb(38, 50, 56); transform-origin: 148.79px 467.705px;" id="elrh2ojtp845t" class="animable"></path><path d="M160.93,433.79a12.3,12.3,0,0,1-.25,1.7c-.2,1.08-.47,2.65-.78,4.59-.64,3.89-1.38,9.27-1.84,15.25s-.54,11.43-.51,15.36c0,2,0,3.56.08,4.66a11.28,11.28,0,0,1,0,1.71,10.35,10.35,0,0,1-.19-1.7c-.09-1.1-.18-2.69-.24-4.66a141.89,141.89,0,0,1,.35-15.41,144.19,144.19,0,0,1,2-15.27c.37-1.94.69-3.5.95-4.57A11.31,11.31,0,0,1,160.93,433.79Z" style="fill: rgb(38, 50, 56); transform-origin: 159.029px 455.425px;" id="elwdnpaw6yymn" class="animable"></path><path d="M175.17,458.7a28.68,28.68,0,0,1-1.67,2.43,40.42,40.42,0,0,0-3.42,6.17,38.85,38.85,0,0,0-2.21,6.7,28.27,28.27,0,0,1-.67,2.87,12.2,12.2,0,0,1,.31-2.95,31.3,31.3,0,0,1,5.69-13A11.46,11.46,0,0,1,175.17,458.7Z" style="fill: rgb(38, 50, 56); transform-origin: 171.184px 467.785px;" id="elax69lfs3tnn" class="animable"></path><path d="M349.51,462a10.38,10.38,0,0,1,1.32,2c.74,1.27,1.7,3.07,2.65,5.1s1.71,3.94,2.21,5.32a9.59,9.59,0,0,1,.68,2.29,12.22,12.22,0,0,1-1-2.15c-.58-1.35-1.39-3.21-2.34-5.24s-1.85-3.84-2.51-5.15A11,11,0,0,1,349.51,462Z" style="fill: rgb(38, 50, 56); transform-origin: 352.94px 469.355px;" id="el0110fqgoswck" class="animable"></path><path d="M367.91,443.74a6.82,6.82,0,0,1-.26,1.3c-.21.93-.48,2.1-.81,3.5-.66,3-1.47,7.06-2.08,11.64s-.89,8.77-1,11.79c-.05,1.44-.09,2.64-.12,3.59a6.08,6.08,0,0,1-.1,1.32,7.44,7.44,0,0,1-.11-1.32c0-.85-.05-2.08,0-3.6a102.48,102.48,0,0,1,.87-11.84,101.32,101.32,0,0,1,2.24-11.67c.38-1.47.72-2.65,1-3.46A5.7,5.7,0,0,1,367.91,443.74Z" style="fill: rgb(38, 50, 56); transform-origin: 365.659px 460.31px;" id="elotm1te8587l" class="animable"></path><path d="M234.8,451.88a4.21,4.21,0,0,1,.91.7,28.72,28.72,0,0,1,2.25,2.16,39.87,39.87,0,0,1,9.71,17.92,25.77,25.77,0,0,1,.58,3.07,5.08,5.08,0,0,1,.1,1.14c-.09,0-.34-1.6-1-4.11A44.72,44.72,0,0,0,237.69,455C236,453,234.74,452,234.8,451.88Z" style="fill: rgb(38, 50, 56); transform-origin: 241.575px 464.375px;" id="elefmg45zzole" class="animable"></path><path d="M252.13,441.24a7.91,7.91,0,0,1,0,1.42c0,1,0,2.31,0,3.86,0,3.26.13,7.76.56,12.72s1.09,9.41,1.65,12.62c.27,1.53.5,2.81.68,3.8a7.16,7.16,0,0,1,.2,1.41,9.13,9.13,0,0,1-.4-1.37c-.23-.88-.52-2.17-.84-3.77a116.18,116.18,0,0,1-2.22-25.41c0-1.64.1-3,.18-3.87A7.12,7.12,0,0,1,252.13,441.24Z" style="fill: rgb(38, 50, 56); transform-origin: 253.475px 459.155px;" id="el7kul0csmutn" class="animable"></path><path d="M267.43,462.44c.15.08-1.57,3.08-2.75,7.14s-1.4,7.5-1.56,7.49a7.67,7.67,0,0,1,0-2.27,28,28,0,0,1,1-5.37,28.77,28.77,0,0,1,2-5.07A8.43,8.43,0,0,1,267.43,462.44Z" style="fill: rgb(38, 50, 56); transform-origin: 265.237px 469.755px;" id="elbhna1hkvhi7" class="animable"></path></g><g id="freepik--Character--inject-4" class="animable" style="transform-origin: 179.65px 326.455px;"><rect x="51.31" y="381.92" width="11.61" height="92.17" style="fill: rgb(69, 90, 100); transform-origin: 57.115px 428.005px;" id="el2f1kq4yuqx" class="animable"></rect><path d="M62.93,474.08s0-.16,0-.48l0-1.38c0-1.23,0-3,0-5.3,0-4.61,0-11.27-.08-19.54,0-16.55-.07-39.55-.11-65.46l.26.26H51.31l.26-.26c-.06,40.37-.11,75.33-.14,92.16l-.12-.11,8.61.06,2.24,0,.77,0s-.24,0-.73,0l-2.21,0-8.68.06H51.2v-.12c0-16.83-.08-51.79-.15-92.16l.26-.26H63.19v.26c0,26-.09,49.05-.11,65.65,0,8.24-.06,14.88-.08,19.48,0,2.26,0,4,0,5.24v1.35C62.94,473.94,62.93,474.08,62.93,474.08Z" style="fill: rgb(38, 50, 56); transform-origin: 57.12px 427.82px;" id="elpl01n8hgzn" class="animable"></path><g id="eltakyej51ry"><g style="opacity: 0.3; transform-origin: 57.115px 386.08px;" class="animable"><rect x="51.31" y="384.16" width="11.61" height="3.84" id="elrahr2hj04te" class="animable" style="transform-origin: 57.115px 386.08px;"></rect></g></g><rect x="298.32" y="381.92" width="11.61" height="92.17" style="fill: rgb(69, 90, 100); transform-origin: 304.125px 428.005px;" id="elwyvv3ifs33h" class="animable"></rect><path d="M309.93,474.08s0-.16,0-.48v-1.38c0-1.23,0-3,0-5.3,0-4.61,0-11.27-.08-19.54,0-16.55-.06-39.55-.11-65.46l.26.26H298.32l.26-.26c-.07,40.37-.12,75.33-.15,92.16l-.11-.11,8.61.06,2.23,0,.77,0s-.24,0-.73,0l-2.2,0-8.68.06h-.12v-.12c0-16.83-.08-51.79-.14-92.16l.26-.26h11.87v.26c0,26-.08,49.05-.11,65.65,0,8.24-.06,14.88-.08,19.48,0,2.26,0,4,0,5.24l0,1.35C309.94,473.94,309.93,474.08,309.93,474.08Z" style="fill: rgb(38, 50, 56); transform-origin: 304.125px 427.82px;" id="eln8h47knfkpl" class="animable"></path><rect x="280.12" y="301.18" width="11.61" height="76.83" style="fill: rgb(69, 90, 100); transform-origin: 285.925px 339.595px;" id="eli17qxs6oo99" class="animable"></rect><path d="M291.74,378a1.93,1.93,0,0,1,0-.41l0-1.15c0-1,0-2.51,0-4.4,0-3.85-.05-9.38-.08-16.27,0-13.78-.07-32.94-.11-54.6l.26.26H280.13c.51-.52.14-.13.25-.24v12.19c0,4,0,7.89,0,11.69,0,7.6,0,14.78,0,21.39-.05,13.2-.08,24.11-.1,31.54l-.13-.13,8.59.07,2.25,0,.78,0-.74,0-2.21,0-8.67.07H280V378c0-7.43-.05-18.34-.09-31.54,0-6.61,0-13.79,0-21.39q0-5.7,0-11.69V301.2c.12-.12-.26.24.27-.28H292v.26c0,21.73-.08,41-.11,54.79,0,6.86-.06,12.37-.07,16.2,0,1.87,0,3.33,0,4.35,0,.47,0,.85,0,1.12S291.74,378,291.74,378Z" style="fill: rgb(38, 50, 56); transform-origin: 285.944px 339.465px;" id="elbyarvb5o0g" class="animable"></path><rect x="73.54" y="301.18" width="11.61" height="76.83" style="fill: rgb(69, 90, 100); transform-origin: 79.345px 339.595px;" id="el4lmupchg3nl" class="animable"></rect><path d="M85.16,378a3.44,3.44,0,0,1,0-.41c0-.28,0-.66,0-1.15,0-1,0-2.51,0-4.4,0-3.85,0-9.38-.08-16.27,0-13.78-.07-32.94-.11-54.6l.26.26H73.55c.51-.52.14-.13.25-.24v12.19q0,6,0,11.69c0,7.6,0,14.78,0,21.39,0,13.2-.08,24.11-.1,31.54l-.13-.13,8.59.07,2.25,0,.78,0-.74,0-2.21,0-8.67.07h-.12V378c0-7.43-.06-18.34-.1-31.54,0-6.61,0-13.79,0-21.39q0-5.7,0-11.69V301.2c.12-.12-.26.24.27-.28H85.42v.26c0,21.73-.09,41-.12,54.79,0,6.86,0,12.37-.07,16.2,0,1.87,0,3.33,0,4.35,0,.47,0,.85,0,1.12S85.16,378,85.16,378Z" style="fill: rgb(38, 50, 56); transform-origin: 79.3744px 339.465px;" id="els1ifrt7xmgn" class="animable"></path><rect x="50.63" y="292.41" width="263.51" height="12.3" style="fill: rgb(69, 90, 100); transform-origin: 182.385px 298.56px;" id="elknwhh3avb4m" class="animable"></rect><path d="M314.14,304.71s0-.25,0-.75,0-1.25,0-2.26c0-2,0-5.09,0-9.29l.07.08-263.5.18h0l.26-.26v12.3l-.26-.26,186.7.11,56.21.08,15.26,0,4,0,1.36,0-1.33,0-3.94,0-15.19,0-56.15.08L50.63,305h-.26V292.15h.27l263.5.19h.08v.07c0,4.22,0,7.3,0,9.33,0,1,0,1.75,0,2.25S314.14,304.71,314.14,304.71Z" style="fill: rgb(38, 50, 56); transform-origin: 182.305px 298.575px;" id="elu1trfqb7r9r" class="animable"></path><rect x="51.31" y="310.86" width="263.51" height="12.3" style="fill: rgb(69, 90, 100); transform-origin: 183.065px 317.01px;" id="el65d0nls9owl" class="animable"></rect><path d="M314.82,323.16s0-.25,0-.75,0-1.25,0-2.26c0-2,0-5.09,0-9.29l.07.07-263.49.19h0l.26-.26v12.3l-.26-.26L238,323l56.21.07,15.26,0,4,0,1.36,0-1.32,0h-3.94l-15.2,0-56.15.08-186.9.11h-.26V310.6h.28l263.49.19h.08v.07c0,4.22,0,7.3,0,9.33,0,1,0,1.74,0,2.24S314.82,323.16,314.82,323.16Z" style="fill: rgb(38, 50, 56); transform-origin: 182.985px 316.93px;" id="elovcwmrs50f" class="animable"></path><rect x="51.31" y="329.99" width="263.51" height="12.3" style="fill: rgb(69, 90, 100); transform-origin: 183.065px 336.14px;" id="el87ia2t6cues" class="animable"></rect><path d="M314.82,342.29s0-.25,0-.75,0-1.25,0-2.26c0-2,0-5.09,0-9.29l.07.07-263.49.19h0l.26-.26v12.3l-.26-.26,186.71.11,56.21.08,15.26,0,4,0,1.36,0-1.32,0-3.94,0-15.2,0-56.15.08-186.9.11h-.26V329.73h.28l263.49.19h.08V330c0,4.22,0,7.3,0,9.33,0,1,0,1.74,0,2.25S314.82,342.29,314.82,342.29Z" style="fill: rgb(38, 50, 56); transform-origin: 183.095px 336.07px;" id="elwmgv1ezgwb" class="animable"></path><rect x="51.31" y="349.12" width="263.51" height="12.3" style="fill: rgb(69, 90, 100); transform-origin: 183.065px 355.27px;" id="elczll7e2p8m" class="animable"></rect><path d="M314.82,361.42s0-.25,0-.75,0-1.25,0-2.26c0-2,0-5.09,0-9.29l.07.08-263.49.18h0l.26-.26v12.3l-.26-.26,186.71.11,56.21.08,15.26,0,4,0,1.36,0-1.32,0-3.94,0-15.2,0-56.15.08-186.9.11h-.26V348.86h.28l263.49.19h.08v.07c0,4.22,0,7.3,0,9.33,0,1,0,1.75,0,2.25S314.82,361.42,314.82,361.42Z" style="fill: rgb(38, 50, 56); transform-origin: 183.095px 355.2px;" id="elr96ibcw0evp" class="animable"></path><rect x="39.87" y="371.86" width="279.75" height="12.3" style="fill: rgb(69, 90, 100); transform-origin: 179.745px 378.01px;" id="elf51zbbvi918" class="animable"></rect><path d="M319.62,384.16s0-.25,0-.75,0-1.25,0-2.26c0-2,0-5.09,0-9.29l.08.07-279.74.19h0l.26-.26v12.3l-.26-.26,198.18.1,59.69.08,16.21,0,4.22,0c.95,0,1.45,0,1.45,0l-1.42,0H314l-16.15,0-59.62.08-198.38.11h-.26V371.6h.27l279.74.19h.07v.07c0,4.22,0,7.3,0,9.33,0,1,0,1.74,0,2.24S319.62,384.16,319.62,384.16Z" style="fill: rgb(38, 50, 56); transform-origin: 179.65px 377.935px;" id="elru27tuf8xm" class="animable"></path><g id="el7jaxozmguta"><g style="opacity: 0.3; transform-origin: 304.125px 386.08px;" class="animable"><rect x="298.32" y="384.16" width="11.61" height="3.84" id="el3i2zoier5cg" class="animable" style="transform-origin: 304.125px 386.08px;"></rect></g></g><path d="M168.31,230.32l-2.51,16.19-6.46,14.74-9.57-6.11-3.41-8.6-2.85-7.22s-10.11,2.44-14.14-7c-1.94-4.56-5.18-14.28-8-23.12a19.14,19.14,0,0,1,11-23.54l.91-.38c10.13-3.49,18.75,3.16,21.95,13.37l13.14,31.69" style="fill: rgb(162, 103, 95); transform-origin: 144.417px 222.796px;" id="elk3dwbkyjfx" class="animable"></path><path d="M143.5,239.32a23.85,23.85,0,0,0,10.93-8.62s-.11,8.05-9.94,11.09Z" style="fill: rgb(122, 74, 69); transform-origin: 148.965px 236.245px;" id="elme7m2hzvez" class="animable"></path><path d="M127.54,216.43a1.46,1.46,0,0,0,1.87.83,1.4,1.4,0,0,0,.89-1.8,1.46,1.46,0,0,0-1.87-.83A1.4,1.4,0,0,0,127.54,216.43Z" style="fill: rgb(38, 50, 56); transform-origin: 128.92px 215.945px;" id="elbvaa12pr0p" class="animable"></path><path d="M125,212.54c.24.11,1-1.07,2.42-1.67s2.83-.31,2.91-.55-.26-.36-.86-.51A4.1,4.1,0,0,0,127,210a3.88,3.88,0,0,0-1.83,1.56C124.87,212.11,124.85,212.5,125,212.54Z" style="fill: rgb(38, 50, 56); transform-origin: 127.625px 211.125px;" id="el1347qkyyl7rd" class="animable"></path><path d="M140.27,210.75a1.46,1.46,0,0,0,1.87.83,1.4,1.4,0,0,0,.9-1.8,1.47,1.47,0,0,0-1.87-.83A1.4,1.4,0,0,0,140.27,210.75Z" style="fill: rgb(38, 50, 56); transform-origin: 141.655px 210.266px;" id="el9qknv0waq9i" class="animable"></path><path d="M139.35,206.15c.23.13,1.07-1,2.58-1.41s2.85,0,3-.23-.21-.38-.8-.6a4.13,4.13,0,0,0-2.44,0,3.91,3.91,0,0,0-2,1.35C139.3,205.71,139.24,206.09,139.35,206.15Z" style="fill: rgb(38, 50, 56); transform-origin: 142.133px 204.943px;" id="elbe42ote5ez" class="animable"></path><path d="M138.93,220.36a10.09,10.09,0,0,0-2.54.55c-.39.11-.77.18-.94,0a2,2,0,0,1-.21-1.2q0-1.57-.06-3.3c-.14-4.67-.4-8.45-.58-8.44s-.24,3.8-.1,8.47c0,1.15.08,2.24.11,3.29a2.37,2.37,0,0,0,.41,1.54,1,1,0,0,0,.84.3,2.7,2.7,0,0,0,.67-.18A10.69,10.69,0,0,0,138.93,220.36Z" style="fill: rgb(38, 50, 56); transform-origin: 136.676px 214.774px;" id="el3nuaq7550sn" class="animable"></path><path d="M136.55,199.93c.31.34,1.69-.45,3.49-1s3.38-.6,3.46-1c0-.21-.37-.49-1.08-.64a6.28,6.28,0,0,0-5.29,1.52C136.6,199.32,136.41,199.77,136.55,199.93Z" style="fill: rgb(38, 50, 56); transform-origin: 140.003px 198.604px;" id="eli1pr9lbp3" class="animable"></path><path d="M122.88,206.8c.4.22,1.26-.53,2.46-1.05s2.33-.69,2.42-1.14c0-.21-.26-.47-.84-.6a3.6,3.6,0,0,0-2.23.28,3.67,3.67,0,0,0-1.7,1.48C122.7,206.28,122.7,206.68,122.88,206.8Z" style="fill: rgb(38, 50, 56); transform-origin: 125.258px 205.391px;" id="elmje4oids2" class="animable"></path><path d="M157.29,206c.14-.13,5.74-4.61,8.2,2s-4.65,7.7-4.73,7.51S157.29,206,157.29,206Z" style="fill: rgb(162, 103, 95); transform-origin: 161.649px 209.963px;" id="elc6ky6hsfbbh" class="animable"></path><path d="M161.84,212.22s.14,0,.37.05a1.27,1.27,0,0,0,.86-.3,3,3,0,0,0,.36-3,4,4,0,0,0-.94-1.52,1.39,1.39,0,0,0-1.19-.56.62.62,0,0,0-.56.57c0,.22.07.33,0,.36s-.18-.06-.23-.35a.78.78,0,0,1,.11-.51.92.92,0,0,1,.57-.41,1.74,1.74,0,0,1,1.58.57,4.25,4.25,0,0,1,1.08,1.69c.46,1.34.24,2.84-.61,3.47a1.32,1.32,0,0,1-1.11.22C161.91,212.37,161.82,212.24,161.84,212.22Z" style="fill: rgb(122, 74, 69); transform-origin: 162.294px 209.534px;" id="elkvni6tjq6i8" class="animable"></path><path d="M115.75,198.53a3.56,3.56,0,0,1,1.4-3.68,3.19,3.19,0,0,1,3.2-5.34,3.29,3.29,0,0,1,3-4.42,2.77,2.77,0,0,1,4.22-3.37,4.78,4.78,0,0,1,6.65-3.39,6.09,6.09,0,0,1,8.09.2,5.82,5.82,0,0,1,6.24,1.74,4.23,4.23,0,0,1,5.42,4.94,3.15,3.15,0,0,1,2.49,4.34,3.08,3.08,0,0,1,2,5.18c1-.28,1.91.83,2,1.87a29.55,29.55,0,0,1-.3,3.1c0,.86.23,1.7.27,2.56a5.56,5.56,0,0,1-1.8,4.32l.25.13c.51.76-.41,1.81-1.33,1.8a4.61,4.61,0,0,1-2.45-1.16,10.19,10.19,0,0,1-2.41-2,2.43,2.43,0,0,1-.16-2.92,3.66,3.66,0,0,1-3.16-1.83,10.57,10.57,0,0,1-1.25-3.6l-1.2-5.53a7,7,0,0,1-7.12-1.37,4,4,0,0,1-5.94.9,5.22,5.22,0,0,1-4.65,5.41c.81,1.24-1.09,3.48-2.27,4.38a5.14,5.14,0,0,1-3.21.65s-1.72,2.28-3.17,2.3-3.72-.88-3.44-2.49A6.53,6.53,0,0,1,115.75,198.53Z" style="fill: rgb(38, 50, 56); transform-origin: 138.061px 192.7px;" id="el92bswklz95q" class="animable"></path><path d="M156.8,189.39a2.61,2.61,0,0,1-.3,1.11,1.32,1.32,0,0,1-1,.62,1.39,1.39,0,0,1-1.3-.58l-.24-.36-.19.39a1.94,1.94,0,0,1-1.67,1,1.9,1.9,0,0,1-1.72-1.31l-.11-.4-.29.29a1.85,1.85,0,0,1-1.32.53,1.82,1.82,0,0,1-1.09-.37c-.54-.41-.66-.84-.72-.82s0,.5.53,1a2.08,2.08,0,0,0,1.26.56,2.26,2.26,0,0,0,1.68-.59l-.41-.11a2.3,2.3,0,0,0,4.31.37l-.43,0a1.82,1.82,0,0,0,1.77.72,1.68,1.68,0,0,0,1.19-.89C157.13,189.86,156.83,189.35,156.8,189.39Z" style="fill: rgb(69, 90, 100); transform-origin: 151.886px 190.722px;" id="el60giei1k47d" class="animable"></path><path d="M160.34,195.21c-.05,0-.15.28-.58.56a1.69,1.69,0,0,1-1.92,0l-.22-.18-.1.27a1.9,1.9,0,0,1-1.46,1.15,1.84,1.84,0,0,1-1.84-1l-.2-.42-.26.38a1.2,1.2,0,0,1-.24.26,1.3,1.3,0,0,1-1.5.11,1.36,1.36,0,0,1-.58-1.28l.07-.5-.43.26a2.21,2.21,0,0,1-1.64.25,2.09,2.09,0,0,1-1.14-.69,5.12,5.12,0,0,1-.62-1.07,1.63,1.63,0,0,0,.4,1.25,2.33,2.33,0,0,0,1.25.89,2.57,2.57,0,0,0,2-.22L151,195a1.82,1.82,0,0,0,.77,1.77,1.79,1.79,0,0,0,2.11-.11,2.08,2.08,0,0,0,.35-.38l-.46,0a2.25,2.25,0,0,0,4.17-.21l-.32.09a1.77,1.77,0,0,0,1.36.31,1.87,1.87,0,0,0,1-.43C160.34,195.57,160.37,195.21,160.34,195.21Z" style="fill: rgb(69, 90, 100); transform-origin: 154.01px 195.448px;" id="el6cst3l69rtn" class="animable"></path><path d="M124.15,184.55a2.53,2.53,0,0,1,.56-.72,1.47,1.47,0,0,1,2.14.28l.24.33.06-.41a2.57,2.57,0,0,1,1.54-1.95,2.48,2.48,0,0,1,2.82.75l.3.37.12-.46a3.14,3.14,0,0,1,1.8-2,3,3,0,0,1,2.84.34,3,3,0,0,1,.84.89l.15.24.23-.17a3,3,0,0,1,3.7.17,3.09,3.09,0,0,1,.79,3.23l-.14.37.38-.09a3.32,3.32,0,0,1,2.46.44,3.22,3.22,0,0,1,1.25,1.5,5,5,0,0,1,.31,1.71s.08-.15.1-.46a3.09,3.09,0,0,0-.18-1.34,3.36,3.36,0,0,0-1.29-1.69,3.65,3.65,0,0,0-2.74-.58l.25.29a3.4,3.4,0,0,0-5.2-4l.38.07a3.39,3.39,0,0,0-1-1,3.49,3.49,0,0,0-3.34-.39,3.61,3.61,0,0,0-2.07,2.36l.43-.09a2.86,2.86,0,0,0-5.07,1.47l.3-.08a1.79,1.79,0,0,0-1.44-.68,1.67,1.67,0,0,0-1.09.46,1.52,1.52,0,0,0-.4.61C124.14,184.46,124.14,184.55,124.15,184.55Z" style="fill: rgb(69, 90, 100); transform-origin: 135.398px 184.691px;" id="eltbod2x0ic3" class="animable"></path><path d="M143.27,218.77c-.24.08.41,1.67-.48,3.35s-2.65,2.2-2.58,2.43.51.15,1.23-.12a4.26,4.26,0,0,0,2.18-1.94,3.71,3.71,0,0,0,.31-2.77C143.72,219,143.38,218.71,143.27,218.77Z" style="fill: rgb(38, 50, 56); transform-origin: 142.138px 221.724px;" id="elfzy76x2jclw" class="animable"></path><path d="M133.53,247.57l-7.92,22.31,1.83,24.4,5,42.15s18.57-6.27,19.41-5.64-8.22-42.73-8.22-42.73l6.55-35.28-.42-10.39Z" style="fill: rgb(230, 33, 70); transform-origin: 138.757px 289.41px;" id="elhvradfk6bqc" class="animable"></path><path d="M133.53,247.57l-8.71,20-18,7.06L88,280.46,90.64,294a4.9,4.9,0,0,0,6.07,3.78l15.93-4.28,14.84-.68,7.72-17.94Z" style="fill: rgb(230, 33, 70); transform-origin: 111.6px 272.758px;" id="el4vjj8ac83lf" class="animable"></path><path d="M94.15,274.89l1.32-1.64a8.68,8.68,0,0,1,3.76.82,11.25,11.25,0,0,1,3.63,5.45,24.65,24.65,0,0,1,0,4.62l-9-9.25" style="fill: rgb(162, 103, 95); transform-origin: 98.4142px 278.695px;" id="elhxr37xfltx7" class="animable"></path><path d="M76.6,265.17c0,.27,17,18.28,17,18.28l3.2,3.16H107l-19.8-22-8.54-1.46Z" style="fill: rgb(38, 50, 56); transform-origin: 91.8px 274.88px;" id="elznh42xduivn" class="animable"></path><path d="M145.55,305.18a3.57,3.57,0,0,1-.39-.63l-1-1.86c-.86-1.62-2.08-4-3.5-7a108,108,0,0,1-4.5-10.65,28.25,28.25,0,0,1-.93-3.23,13.74,13.74,0,0,1-.27-1.74c0-.58,0-1.17,0-1.76,0-2.37,0-4.82.12-7.33.12-3.18.28-6.25.47-9.17v-.15l.14-.06,5.27-2.32.06.46-4-.53-.34,0,.17-.29c2.6-4.46,4.76-8.19,6.31-10.86l1.79-3,.49-.78a1.06,1.06,0,0,1,.19-.26,1.23,1.23,0,0,1-.13.29l-.43.82-1.69,3.08-6.14,10.95-.17-.33,4,.5.85.1-.78.35-5.25,2.34.15-.22c-.18,2.92-.34,6-.46,9.16-.09,2.5-.15,4.94-.13,7.3,0,.59,0,1.17,0,1.75a11.67,11.67,0,0,0,.25,1.66,29.15,29.15,0,0,0,.89,3.18c1.41,4.09,3,7.66,4.39,10.65s2.53,5.37,3.34,7l.92,1.9A5.08,5.08,0,0,1,145.55,305.18Z" style="fill: rgb(38, 50, 56); transform-origin: 140.295px 274.6px;" id="elstc0k87k97" class="animable"></path><path d="M86.63,274.89s-2.58,1.86-2.51,2.92a2.88,2.88,0,0,0,1.25,2.37c.6.2,2.38,1.12,2.38,1.12s-1.59,1.52-1.12,3.11a2.91,2.91,0,0,0,1.51,2,9.83,9.83,0,0,0,.66,3.23,4.06,4.06,0,0,0,2.51,1.58,19.68,19.68,0,0,0,2,3.23,5.55,5.55,0,0,0,2.77,1.39s2.38.27,3.63-.59a4.93,4.93,0,0,0,2.71-4.62s5.68-2.84,5.74-4.29-.59-1.91-.59-1.91l-2.84.52s-.4-1.51-1.25-1.65-11.22,2.38-11.22,2.38,7.06-1.12,7.26-2.51.26-2.57-.8-2.84-8.57.55-8.57.55l-.4-1.34s2,.07,2-1.71-1.12-2.18-1.12-2.18Z" style="fill: rgb(162, 103, 95); transform-origin: 96.1413px 285.385px;" id="elrjyiri6forn" class="animable"></path><polygon points="145.55 244 146.41 250.89 141.08 280.86 146.49 306.73 174.53 315.02 185.56 310.26 181.79 237.64 171.77 230.6 167.92 228.01 153.48 249.87 145.55 244" style="fill: rgb(250, 250, 250); transform-origin: 163.32px 271.515px;" id="eltibwm2gegrk" class="animable"></polygon><path d="M171,230.05l7,3.12,24.82,3.34,13.39,70.42,1.68,8.09,25.67,38.41a3.65,3.65,0,0,1-1.23,5.2l-21,12a3.57,3.57,0,0,1-4.6-1.2L190,329.18l-13.24-16.95s-7.93-24-9-34.21a145.21,145.21,0,0,1,0-26.91C168.38,245,171,230.05,171,230.05Z" style="fill: rgb(230, 33, 70); transform-origin: 205.655px 300.536px;" id="elpnifuopstwd" class="animable"></path><path d="M202.78,236.51a12.11,12.11,0,0,1,6.27,8.47c1.58,8.36,6.34,22.94,8.13,38.51,2.5,21.78-3.36,28.5-6.12,32.26s-19.88,11.74-19.88,11.74l-12.87-17.14,14.25-11.68-1.25-30.25s-5-6.88-2.5-17.1,9.8-15.43,14-14.81Z" style="fill: rgb(230, 33, 70); transform-origin: 198.048px 281.975px;" id="eluw1ouvdmt3" class="animable"></path><g id="elq60gqhec43s"><g style="opacity: 0.3; transform-origin: 203.767px 319.535px;" class="animable"><path d="M216.06,306.36c-1.95,5.28-4.18,9.74-8.72,12.25-4.84,2.68-11.57,6.46-16.16,8.88l3.36,5.22c5.27-.81,15-6.95,18.16-11.24A20.43,20.43,0,0,0,216.06,306.36Z" id="elprm9w6xv1do" class="animable" style="transform-origin: 203.767px 319.535px;"></path></g></g><path d="M191,270a2.71,2.71,0,0,1,.09.45c.06.33.13.77.23,1.33.18,1.21.45,2.93.79,5.14.68,4.5,1.65,11,2.84,19l0,.1-.08.07-16.39,14.44,0-.31,12.88,17.13-.32-.07c4.28-2.16,8.71-4.5,13.09-7.09,1.25-.75,2.48-1.5,3.67-2.31a22.47,22.47,0,0,0,3.31-2.6,25.53,25.53,0,0,0,4.07-7.17,41.94,41.94,0,0,0,2.41-15.46,100.88,100.88,0,0,0-1.37-14.23c-.69-4.43-1.49-8.53-2.28-12.26-1.57-7.47-3.09-13.46-4.15-17.59-.54-2-1-3.64-1.25-4.75-.14-.53-.25-.94-.32-1.24a1.89,1.89,0,0,1-.1-.43s.06.14.15.41.21.71.37,1.23c.32,1.07.78,2.67,1.35,4.73,1.12,4.12,2.69,10.1,4.31,17.56.82,3.73,1.64,7.84,2.35,12.28a99.53,99.53,0,0,1,1.41,14.28,42.32,42.32,0,0,1-2.4,15.66,26.06,26.06,0,0,1-4.17,7.33,21.91,21.91,0,0,1-3.4,2.68c-1.2.81-2.44,1.57-3.69,2.32-4.41,2.61-8.83,4.95-13.13,7.1l-.19.1-.13-.17-12.85-17.16-.13-.18.16-.14,16.45-14.38-.06.17c-1.13-8-2-14.48-2.67-19-.3-2.21-.54-4-.7-5.15-.07-.57-.13-1-.17-1.34A3.89,3.89,0,0,1,191,270Z" style="fill: rgb(38, 50, 56); transform-origin: 198.029px 284.99px;" id="elw99sn92ipn" class="animable"></path><path d="M172.83,295.87a3.08,3.08,0,0,1,.06-.7c.06-.5.15-1.16.25-2,.26-1.78.61-4.25,1.05-7.27.87-6.14,2.24-14.6,3.57-24,.62-4.54,1.21-8.86,1.74-12.8l.16.25-4.24-1.62-.42-.16.37-.24,4.26-2.76-.08.19c-.51-3.53-.92-6.42-1.22-8.5-.12-1-.23-1.73-.3-2.32a3.84,3.84,0,0,1-.07-.82,4.79,4.79,0,0,1,.18.8c.1.59.24,1.35.41,2.31.34,2.07.81,4.95,1.38,8.47l0,.13-.1.07-4.23,2.8-.05-.39,4.26,1.59.18.07,0,.19c-.52,3.94-1.1,8.27-1.71,12.81-1.32,9.37-2.75,17.83-3.72,24-.5,3-.91,5.48-1.21,7.25l-.35,2A3.56,3.56,0,0,1,172.83,295.87Z" style="fill: rgb(38, 50, 56); transform-origin: 176.409px 264.495px;" id="elzdiq2mvlf0b" class="animable"></path><path d="M199,237.46c.06.08-1.21,1-2.92,2.73a25.58,25.58,0,0,0-2.7,3.36,25.64,25.64,0,0,0-4,9.72,25.45,25.45,0,0,0-.42,4.29c0,2.47.27,4,.17,4a4,4,0,0,1-.26-1.06,10.34,10.34,0,0,1-.18-1.25,16.55,16.55,0,0,1-.1-1.69,22.76,22.76,0,0,1,.31-4.38,27.35,27.35,0,0,1,1.48-5.17,27,27,0,0,1,2.57-4.73,23,23,0,0,1,2.84-3.35,16.49,16.49,0,0,1,1.25-1.12,11.26,11.26,0,0,1,1-.78A4.24,4.24,0,0,1,199,237.46Z" style="fill: rgb(38, 50, 56); transform-origin: 193.792px 249.51px;" id="elzwoebitjub9" class="animable"></path><path d="M127.33,292.84c-.14,0-.6-4.84-1-10.84s-.65-10.86-.5-10.88.6,4.85,1,10.84S127.47,292.83,127.33,292.84Z" style="fill: rgb(38, 50, 56); transform-origin: 126.578px 281.98px;" id="elxd1c6818s7p" class="animable"></path><polygon points="211.87 336.99 215.72 344.85 233.55 333.44 227.38 326.45 211.87 336.99" style="fill: rgb(230, 33, 70); transform-origin: 222.71px 335.65px;" id="el2s3rq6hm5rb" class="animable"></polygon><path d="M211.87,337a9.71,9.71,0,0,1,1.07-.81l3.14-2.21,11.16-7.72.18-.12.14.16,6.19,7,.2.23-.26.16-.78.5L215.82,345l-.18.11-.08-.19-2.76-5.84c-.29-.64-.53-1.16-.71-1.57a3.21,3.21,0,0,1-.22-.53,3.1,3.1,0,0,1,.32.55c.21.41.48.93.82,1.56l2.88,5.67-.27-.07,17-11,.78-.5,0,.39c-2.18-2.47-4.26-4.83-6.16-7l.32,0-11.17,7.45-3.26,2.13-.89.57Z" style="fill: rgb(38, 50, 56); transform-origin: 222.91px 335.625px;" id="elyyx0llfhsef" class="animable"></path><g id="eln79vltz4oo"><g style="opacity: 0.3; transform-origin: 222.315px 342.205px;" class="animable"><path d="M212,337.34c.08.15,4,12.07,4,12.07l16.63-11.8L231.2,335l-15.48,9.9Z" id="ellt20p001vdg" class="animable" style="transform-origin: 222.315px 342.205px;"></path></g></g><g id="el9ikeu4rd45o"><g style="opacity: 0.3; transform-origin: 178.04px 263.585px;" class="animable"><path d="M178.46,236.46l3,9.75-3,1.36,3.95,1.94s-6.22,34-7,37.1-1.74,4.1-1.74,4.1l6.07-41.53-4.24-1.61,4.24-2.79Z" id="elrvywcrqsdvj" class="animable" style="transform-origin: 178.04px 263.585px;"></path></g></g><path d="M112.67,289.59a27.24,27.24,0,0,0-1.13-6.9,27.7,27.7,0,0,0-3.3-6.15,5.66,5.66,0,0,1,1.44,1.51,16.27,16.27,0,0,1,3.21,9.46A5.85,5.85,0,0,1,112.67,289.59Z" style="fill: rgb(38, 50, 56); transform-origin: 110.573px 283.065px;" id="el56mwxrel0ai" class="animable"></path><g id="elsy0akil99g"><g style="opacity: 0.3; transform-origin: 125.6px 281.5px;" class="animable"><path d="M125.68,270.16c-3,7.4-1.89,15.51,1.58,22.68C126.72,284.59,126.4,278.16,125.68,270.16Z" id="eldt1v2a4defr" class="animable" style="transform-origin: 125.6px 281.5px;"></path></g></g><path d="M168.83,236.21a5,5,0,0,1-.52,1l-1.55,2.59c-1.3,2.2-3,5.26-4.73,8.75-1.16,2.35-2.15,4.6-3,6.5l-.11.28-.23-.18a34.87,34.87,0,0,1-3.72-3.44,8.2,8.2,0,0,1-1.22-1.48,13.59,13.59,0,0,1,1.41,1.3,48.81,48.81,0,0,0,3.8,3.26l-.34.09c.77-1.93,1.74-4.19,2.9-6.56a90.61,90.61,0,0,1,4.88-8.71c.69-1.08,1.28-1.93,1.7-2.51A4.71,4.71,0,0,1,168.83,236.21Z" style="fill: rgb(38, 50, 56); transform-origin: 161.29px 245.77px;" id="elw803o1537sn" class="animable"></path><path d="M152.41,250a28.11,28.11,0,0,1-1.67,5.09l-.13.35-.28-.24-.13-.12a16.66,16.66,0,0,1-3.7-4.12c.11-.1,1.76,1.74,4,3.73l.13.11-.41.11A28.07,28.07,0,0,1,152.41,250Z" style="fill: rgb(38, 50, 56); transform-origin: 149.455px 252.72px;" id="elrh9bhbmprxa" class="animable"></path><path d="M155.35,301.17a1.34,1.34,0,0,1-.08-.48c0-.39-.08-.85-.13-1.41-.08-1.31-.2-3.06-.34-5.19-.27-4.38-.58-10.43-.85-17.12s-.41-12.75-.41-17.14c0-2.2,0-4,.07-5.2,0-.56,0-1,.07-1.41a2,2,0,0,1,.06-.49,1.47,1.47,0,0,1,0,.49c0,.38,0,.85,0,1.41,0,1.31.06,3.06.1,5.19.09,4.39.3,10.44.56,17.13s.51,12.67.69,17.12c.08,2.14.14,3.89.19,5.2,0,.56,0,1,0,1.41A2.66,2.66,0,0,1,155.35,301.17Z" style="fill: rgb(38, 50, 56); transform-origin: 154.445px 276.95px;" id="el422lkagnbof" class="animable"></path><path d="M96.8,436.22l2.59,24.41s-24,10.84-23.91,15.39L123,472.71l-2.47-38.22Z" style="fill: rgb(230, 33, 70); transform-origin: 99.2399px 455.255px;" id="eltk073ikco" class="animable"></path><path d="M113.94,457.55a2,2,0,0,1,1.5,2.12,1.87,1.87,0,0,1-2.09,1.5,2,2,0,0,1-1.57-2.25,1.93,1.93,0,0,1,2.34-1.32" style="fill: rgb(224, 224, 224); transform-origin: 113.603px 459.362px;" id="el5qmyfen6565" class="animable"></path><path d="M123.11,473.7l-.24-3.7-45.68,3.48s-2.06,1.07-1.71,2.54Z" style="fill: rgb(224, 224, 224); transform-origin: 99.275px 473.01px;" id="eljcms6ex56ih" class="animable"></path><path d="M98.6,460.45c0,.23,1.19.25,2.39.92s1.87,1.6,2.07,1.49-.23-1.42-1.69-2.2S98.54,460.24,98.6,460.45Z" style="fill: rgb(38, 50, 56); transform-origin: 100.852px 461.525px;" id="elp9jc3zukj7" class="animable"></path><path d="M93.76,462.86c0,.22,1,.55,1.85,1.48s1.16,1.94,1.39,1.92.29-1.35-.8-2.48S93.75,462.63,93.76,462.86Z" style="fill: rgb(38, 50, 56); transform-origin: 95.4485px 464.502px;" id="elupe55qodxi8" class="animable"></path><path d="M91.35,469c.21,0,.45-1.15-.23-2.38s-1.81-1.66-1.89-1.46.63.84,1.18,1.85S91.11,469,91.35,469Z" style="fill: rgb(38, 50, 56); transform-origin: 90.3963px 467.057px;" id="el1sk28skvtzw" class="animable"></path><path d="M98.63,454.82c.11.2,1.15-.19,2.47-.2s2.37.34,2.48.14-.94-1-2.49-.95S98.5,454.64,98.63,454.82Z" style="fill: rgb(38, 50, 56); transform-origin: 101.103px 454.342px;" id="eluszcn2tesha" class="animable"></path><path d="M88.34,337.69l-22,10.88s-18.46-18.72-22.72-17.1L63.18,374.9l35-15.55Z" style="fill: rgb(230, 33, 70); transform-origin: 70.9px 353.135px;" id="eluhxi36ccfch" class="animable"></path><path d="M74.26,361.15a1.94,1.94,0,0,1-1.47,2.14,1.86,1.86,0,0,1-2.13-1.44,2,2,0,0,1,1.57-2.25,1.94,1.94,0,0,1,2,1.74" style="fill: rgb(224, 224, 224); transform-origin: 72.4576px 361.458px;" id="el129bxenzuegp" class="animable"></path><path d="M62.28,375.35l3.39-1.51L46.58,332.19s-1.71-1.55-3-.72Z" style="fill: rgb(224, 224, 224); transform-origin: 54.625px 353.288px;" id="ele2yrlbx6xxm" class="animable"></path><path d="M66.23,347.77c-.21.1.17,1.2,0,2.55s-.85,2.31-.68,2.47,1.26-.71,1.48-2.35S66.41,347.63,66.23,347.77Z" style="fill: rgb(38, 50, 56); transform-origin: 66.2947px 350.284px;" id="elvkfu2hycdia" class="animable"></path><path d="M62.29,344.06c-.22,0-.17,1.13-.74,2.25s-1.43,1.76-1.33,2,1.37-.2,2.05-1.61S62.5,344,62.29,344.06Z" style="fill: rgb(38, 50, 56); transform-origin: 61.4217px 346.215px;" id="elrecwn5sryi" class="animable"></path><path d="M55.68,343.93c0,.21,1.23,0,2.15-1s.93-2.27.71-2.28-.56.89-1.33,1.75S55.6,343.71,55.68,343.93Z" style="fill: rgb(38, 50, 56); transform-origin: 57.1665px 342.327px;" id="el5bvjvkj3fm9" class="animable"></path><path d="M71.52,345.84c-.15.18.58,1,1,2.26s.5,2.34.73,2.36.59-1.21,0-2.65S71.64,345.66,71.52,345.84Z" style="fill: rgb(38, 50, 56); transform-origin: 72.5356px 348.136px;" id="elmd41qzkidi" class="animable"></path><path d="M99.08,351.53A12.79,12.79,0,0,0,89.6,361.6c-1.61,8.47,4.22,93.66,4.22,93.66l29.9-2.4-1.83-57.4-.74-11.58,2.57-2,52.55-9.25-8-21.72-8.79-15.3-40.25,10Z" style="fill: rgb(38, 50, 56); transform-origin: 132.794px 395.435px;" id="elmwjj9y3d2kp" class="animable"></path><path d="M198,337.18s-21.74-31.43-28.1-36c-5.24-3.77-13.12-3.76-18-1.57s-81,39.95-81,39.95l11.17,28,72.46-25.11,10.8,17,10.06,13.32,28.24.22c1.33,0,7.4-12,7.4-12Z" style="fill: rgb(38, 50, 56); transform-origin: 140.965px 335.556px;" id="el6pme000grz2" class="animable"></path><path d="M89.32,368.17a.94.94,0,0,1,0-.29c0-.23,0-.51,0-.86s0-.86,0-1.41.13-1.19.21-1.91.31-1.49.47-2.36c.09-.43.27-.86.41-1.31a10,10,0,0,1,.54-1.39,13.55,13.55,0,0,1,4.28-5.48,10.58,10.58,0,0,1,3.67-1.8l4.33-.74,9.53-1.59,21.85-3.62,19.84-3.25.16,0,.09.14c5.81,9.07,10.53,17,14.5,22.12,1.92,2.59,3.46,4.65,4.54,6.09.51.69.91,1.23,1.21,1.62l.3.42.1.15s0,0-.13-.12l-.34-.4-1.27-1.57c-1.1-1.38-2.7-3.41-4.65-6-4.05-5.12-8.84-13-14.67-22l.24.11-19.84,3.28-21.85,3.58-9.54,1.55-4.31.7a10.43,10.43,0,0,0-3.55,1.7,13.39,13.39,0,0,0-4.22,5.31,8.61,8.61,0,0,0-.55,1.36,12.19,12.19,0,0,0-.43,1.29,21.34,21.34,0,0,0-.5,2.32l-.27,1.89c0,.54-.06,1-.08,1.4s0,.64-.06.86A1.36,1.36,0,0,1,89.32,368.17Z" style="fill: rgb(69, 90, 100); transform-origin: 132.329px 357.43px;" id="elq0d5r558ffn" class="animable"></path><path d="M164.9,323a3.52,3.52,0,0,1,.11.9,15.29,15.29,0,0,1,0,2.47,20.25,20.25,0,0,1-.67,3.62,24.26,24.26,0,0,1-1.66,4.19,24.68,24.68,0,0,1-2.5,3.75,21.33,21.33,0,0,1-2.6,2.61,14.93,14.93,0,0,1-2,1.44,3.18,3.18,0,0,1-.81.42c-.05-.08,1-.76,2.57-2.14a23,23,0,0,0,2.46-2.63,25.61,25.61,0,0,0,2.42-3.69,26,26,0,0,0,1.66-4.09,22.09,22.09,0,0,0,.76-3.52C164.87,324.3,164.8,323,164.9,323Z" style="fill: rgb(69, 90, 100); transform-origin: 159.914px 332.7px;" id="elcvzxss9jcgn" class="animable"></path></g><g id="freepik--Device--inject-4" class="animable" style="transform-origin: 351.525px 230.09px;"><path d="M416.9,422.68l-130.85-.07a28.51,28.51,0,0,1-28.49-28.51L257.63,66a28.5,28.5,0,0,1,28.52-28.5L417,37.62a28.51,28.51,0,0,1,28.49,28.51l-.06,328.06A28.51,28.51,0,0,1,416.9,422.68Z" style="fill: rgb(38, 50, 56); transform-origin: 351.525px 230.09px;" id="elmw922zrqqj" class="animable"></path><path d="M416.86,49.22l-25.37,0a6.31,6.31,0,0,0-6.16,6.44v4.6a6.3,6.3,0,0,1-6.16,6.44l-49.45,0a6.3,6.3,0,0,1-6.16-6.44V55.6a6.31,6.31,0,0,0-6.16-6.44h-8.93l-22.2,0a20,20,0,0,0-20,20l-.06,320.21a20,20,0,0,0,19.95,20l130.6.07a20,20,0,0,0,20-20l.07-320.21A20,20,0,0,0,416.86,49.22Z" style="fill: rgb(255, 255, 255); transform-origin: 351.52px 229.3px;" id="eljita0g61j5" class="animable"></path><path d="M436.82,69.19a20,20,0,0,0-20-20l-25.37,0a6.31,6.31,0,0,0-6.16,6.44v4.6a6.3,6.3,0,0,1-6.16,6.44l-49.45,0a6.3,6.3,0,0,1-6.16-6.44V55.6a6.31,6.31,0,0,0-6.16-6.44h-8.93l-22.2,0a20,20,0,0,0-20,20l-.06,30.62H436.81Z" style="fill: rgb(245, 245, 245); transform-origin: 351.495px 74.47px;" id="elm69jl6zetn" class="animable"></path><path d="M422.94,80.44c0,.09-3.06.2-6.83.23a65.77,65.77,0,0,1-6.83-.12,133.38,133.38,0,0,1,13.66-.11Z" style="fill: rgb(38, 50, 56); transform-origin: 416.11px 80.5123px;" id="elxrqkuyi6g6" class="animable"></path><path d="M423,83.93a65.16,65.16,0,0,1-6.82.23,65.77,65.77,0,0,1-6.83-.12c0-.09,3.05-.19,6.83-.23S423,83.84,423,83.93Z" style="fill: rgb(38, 50, 56); transform-origin: 416.175px 83.9987px;" id="elwlcb0jlqdic" class="animable"></path><path d="M423,87.43c0,.09-3.05.19-6.82.22a67.66,67.66,0,0,1-6.83-.11A133.16,133.16,0,0,1,423,87.43Z" style="fill: rgb(38, 50, 56); transform-origin: 416.175px 87.4978px;" id="eld8lnx4bm52" class="animable"></path><path d="M304.11,322.24l.69-1.45a6.72,6.72,0,0,0,4.3,1.5c2.24,0,3.21-.87,3.21-2,0-3.17-7.88-1.17-7.88-6,0-2,1.56-3.72,5-3.72a7.59,7.59,0,0,1,4.18,1.16L313,313.2a6.76,6.76,0,0,0-3.57-1.06c-2.21,0-3.16.93-3.16,2.07,0,3.18,7.88,1.19,7.88,6,0,2-1.6,3.7-5,3.7A7.78,7.78,0,0,1,304.11,322.24Z" style="fill: rgb(38, 50, 56); transform-origin: 309.13px 317.241px;" id="elemlzixif78" class="animable"></path><path d="M315.67,318.8a4.93,4.93,0,0,1,5.21-5,4.38,4.38,0,0,1,4,2.1l-1.35.87a3.1,3.1,0,0,0-2.68-1.41,3.47,3.47,0,0,0,0,6.93,3.07,3.07,0,0,0,2.68-1.41l1.35.86a4.41,4.41,0,0,1-4,2.11A4.94,4.94,0,0,1,315.67,318.8Z" style="fill: rgb(38, 50, 56); transform-origin: 320.274px 318.825px;" id="elasb8widgyv6" class="animable"></path><path d="M335,317.78v5.94h-1.69v-1.3a3.65,3.65,0,0,1-3.23,1.41c-2.23,0-3.65-1.19-3.65-2.9s1-2.88,4-2.88h2.83v-.35c0-1.5-.88-2.38-2.64-2.38a5,5,0,0,0-3.12,1.06l-.75-1.34a6.6,6.6,0,0,1,4.07-1.26C333.48,313.78,335,315.08,335,317.78Zm-1.78,2.93v-1.37h-2.75c-1.77,0-2.27.68-2.27,1.52s.82,1.6,2.17,1.6A2.86,2.86,0,0,0,333.22,320.71Z" style="fill: rgb(38, 50, 56); transform-origin: 330.715px 318.811px;" id="el91kbys6xld" class="animable"></path><path d="M347.66,318.05v5.67h-1.79v-5.46c0-1.93-1-2.88-2.65-2.88a2.93,2.93,0,0,0-3.13,3.27v5.07h-1.78v-9.85H340v1.49a4.23,4.23,0,0,1,3.55-1.58C346,313.78,347.66,315.16,347.66,318.05Z" style="fill: rgb(38, 50, 56); transform-origin: 342.985px 318.746px;" id="eljyp61knemfp" class="animable"></path><path d="M360.31,318.05v5.67h-1.78v-5.46c0-1.93-1-2.88-2.66-2.88a2.92,2.92,0,0,0-3.12,3.27v5.07H351v-9.85h1.71v1.49a4.21,4.21,0,0,1,3.55-1.58C358.62,313.78,360.31,315.16,360.31,318.05Z" style="fill: rgb(38, 50, 56); transform-origin: 355.655px 318.746px;" id="el7591fial4xb" class="animable"></path><path d="M363.31,310.82a1.21,1.21,0,1,1,1.2,1.16A1.17,1.17,0,0,1,363.31,310.82Zm.31,3.05h1.79v9.85h-1.79Z" style="fill: rgb(38, 50, 56); transform-origin: 364.519px 316.64px;" id="elx7wi5elh69f" class="animable"></path><path d="M378.16,318.05v5.67h-1.79v-5.46c0-1.93-1-2.88-2.66-2.88a2.92,2.92,0,0,0-3.12,3.27v5.07h-1.78v-9.85h1.71v1.49a4.23,4.23,0,0,1,3.55-1.58C376.46,313.78,378.16,315.16,378.16,318.05Z" style="fill: rgb(38, 50, 56); transform-origin: 373.485px 318.746px;" id="elasy0g1vodae" class="animable"></path><path d="M390.94,313.87v8.52c0,3.47-1.76,5.05-5.11,5.05a7.28,7.28,0,0,1-4.7-1.47l.85-1.37a6,6,0,0,0,3.79,1.28c2.33,0,3.39-1.08,3.39-3.31v-.78a4.52,4.52,0,0,1-3.55,1.52,4.77,4.77,0,1,1,0-9.53,4.5,4.5,0,0,1,3.64,1.62v-1.53Zm-1.75,4.67a3.4,3.4,0,1,0-3.38,3.21A3.14,3.14,0,0,0,389.19,318.54Z" style="fill: rgb(38, 50, 56); transform-origin: 385.781px 320.611px;" id="el2vkbxac6fk3" class="animable"></path><path d="M393.5,322.55a1.24,1.24,0,0,1,1.27-1.26,1.27,1.27,0,0,1,0,2.54A1.26,1.26,0,0,1,393.5,322.55Z" style="fill: rgb(38, 50, 56); transform-origin: 394.77px 322.56px;" id="el9swi2jrpzgk" class="animable"></path><path d="M397.72,322.55a1.24,1.24,0,0,1,1.27-1.26,1.27,1.27,0,0,1,0,2.54A1.26,1.26,0,0,1,397.72,322.55Z" style="fill: rgb(38, 50, 56); transform-origin: 398.99px 322.56px;" id="elfxuj8hea0pv" class="animable"></path><path d="M401.94,322.55a1.24,1.24,0,0,1,1.27-1.26,1.27,1.27,0,0,1,0,2.54A1.26,1.26,0,0,1,401.94,322.55Z" style="fill: rgb(38, 50, 56); transform-origin: 403.21px 322.56px;" id="el1rlit1rgrnd" class="animable"></path><rect x="281.1" y="340.32" width="137.53" height="36.77" rx="16.62" style="fill: rgb(235, 235, 235); transform-origin: 349.865px 358.705px;" id="el1g2t0m9jzkc" class="animable"></rect><path d="M307.65,355.38l-2.31,6.18h-1.07l-1.79-4.69-1.8,4.69H299.6l-2.29-6.18h1.06l1.79,4.92,1.87-4.92H303l1.83,4.95,1.85-4.95Z" style="fill: rgb(38, 50, 56); transform-origin: 302.48px 358.47px;" id="eleee9tw8j3fu" class="animable"></path><path d="M318,355.38l-2.31,6.18h-1.07l-1.78-4.69-1.81,4.69H310l-2.3-6.18h1.06l1.8,4.92,1.86-4.92h.95l1.83,4.95,1.84-4.95Z" style="fill: rgb(38, 50, 56); transform-origin: 312.85px 358.47px;" id="elhx0gg55vx" class="animable"></path><path d="M328.43,355.38l-2.3,6.18h-1.08l-1.78-4.69-1.81,4.69h-1.07l-2.3-6.18h1.06l1.8,4.92,1.86-4.92h.95l1.83,4.95,1.84-4.95Z" style="fill: rgb(38, 50, 56); transform-origin: 323.26px 358.47px;" id="elc7fg6s5p03" class="animable"></path><path d="M328.66,360.83a.78.78,0,0,1,.79-.8.8.8,0,0,1,0,1.6A.79.79,0,0,1,328.66,360.83Z" style="fill: rgb(38, 50, 56); transform-origin: 329.455px 360.83px;" id="el6g3qx3ug63x" class="animable"></path><path d="M331.05,360.91l.47-.89a4,4,0,0,0,2.17.64c1,0,1.46-.31,1.46-.84,0-1.38-3.9-.18-3.9-2.64,0-1.11,1-1.86,2.58-1.86a4.52,4.52,0,0,1,2.25.56l-.48.89a3.24,3.24,0,0,0-1.78-.49c-1,0-1.46.36-1.46.85,0,1.46,3.91.27,3.91,2.67,0,1.12-1,1.83-2.66,1.83A4.48,4.48,0,0,1,331.05,360.91Z" style="fill: rgb(38, 50, 56); transform-origin: 333.66px 358.476px;" id="el311cb2c08vf" class="animable"></path><path d="M337.48,353.47a.73.73,0,0,1,.76-.73.73.73,0,1,1,0,1.45A.73.73,0,0,1,337.48,353.47Zm.2,1.91h1.12v6.18h-1.12Z" style="fill: rgb(38, 50, 56); transform-origin: 338.268px 357.147px;" id="el9q94o93iftb" class="animable"></path><path d="M344.4,361.2a2.1,2.1,0,0,1-1.35.43,1.77,1.77,0,0,1-2-1.93v-3.4h-1v-.92h1V354h1.12v1.35H344v.92h-1.77v3.35a.92.92,0,0,0,1,1,1.42,1.42,0,0,0,.88-.3Z" style="fill: rgb(38, 50, 56); transform-origin: 342.225px 357.823px;" id="eldlmh4vejqa7" class="animable"></path><path d="M351.11,358.85h-5a2.09,2.09,0,0,0,2.24,1.8,2.31,2.31,0,0,0,1.78-.74l.62.72a3.37,3.37,0,0,1-5.76-2.16,3,3,0,0,1,3.1-3.15,3,3,0,0,1,3.05,3.19C351.13,358.6,351.12,358.74,351.11,358.85Zm-5-.81h4a2,2,0,0,0-4,0Z" style="fill: rgb(38, 50, 56); transform-origin: 348.066px 358.474px;" id="eljenfkp9t1z" class="animable"></path><path d="M361.92,355.38l-2.31,6.18h-1.07l-1.78-4.69L355,361.56h-1.07l-2.3-6.18h1.06l1.8,4.92,1.86-4.92h.95l1.83,4.95,1.84-4.95Z" style="fill: rgb(38, 50, 56); transform-origin: 356.775px 358.47px;" id="elkjrm8dsi3k" class="animable"></path><path d="M368.44,358.85h-5a2.09,2.09,0,0,0,2.24,1.8,2.3,2.3,0,0,0,1.78-.74l.62.72a3.37,3.37,0,0,1-5.76-2.16,3,3,0,0,1,3.1-3.15,3,3,0,0,1,3.06,3.19C368.47,358.6,368.45,358.74,368.44,358.85Zm-5-.81h4a2,2,0,0,0-4,0Z" style="fill: rgb(38, 50, 56); transform-origin: 365.401px 358.474px;" id="els704tm0zllh" class="animable"></path><path d="M376.42,358.47a3,3,0,0,1-3.12,3.16,2.62,2.62,0,0,1-2.21-1.05v1H370v-8.65h1.12v3.4a2.64,2.64,0,0,1,2.16-1A3,3,0,0,1,376.42,358.47Zm-1.13,0a2.08,2.08,0,1,0-2.09,2.18A2,2,0,0,0,375.29,358.47Z" style="fill: rgb(38, 50, 56); transform-origin: 373.212px 357.281px;" id="el46nu2zl93uq" class="animable"></path><path d="M377.31,360.83a.78.78,0,0,1,.79-.8.8.8,0,0,1,0,1.6A.79.79,0,0,1,377.31,360.83Z" style="fill: rgb(38, 50, 56); transform-origin: 378.105px 360.83px;" id="el4r2quw0trhi" class="animable"></path><path d="M379.77,358.47a3.09,3.09,0,0,1,3.27-3.15,2.76,2.76,0,0,1,2.51,1.32l-.85.55a1.91,1.91,0,0,0-1.68-.89,2.18,2.18,0,0,0,0,4.35,1.92,1.92,0,0,0,1.68-.88l.85.53a2.77,2.77,0,0,1-2.51,1.33A3.1,3.1,0,0,1,379.77,358.47Z" style="fill: rgb(38, 50, 56); transform-origin: 382.66px 358.475px;" id="elwtju9ukekbe" class="animable"></path><path d="M386.34,358.47a3.21,3.21,0,1,1,3.22,3.16A3.08,3.08,0,0,1,386.34,358.47Zm5.29,0a2.08,2.08,0,1,0-4.16,0,2.08,2.08,0,1,0,4.16,0Z" style="fill: rgb(38, 50, 56); transform-origin: 389.549px 358.422px;" id="elnere69qr1a" class="animable"></path><path d="M404.57,358v3.55h-1.11v-3.43c0-1.21-.59-1.8-1.6-1.8a1.79,1.79,0,0,0-1.85,2.05v3.18h-1.12v-3.43c0-1.21-.59-1.8-1.6-1.8a1.79,1.79,0,0,0-1.85,2.05v3.18h-1.12v-6.18h1.07v.92a2.5,2.5,0,0,1,2.13-1,2.3,2.3,0,0,1,2.15,1.15,2.78,2.78,0,0,1,2.38-1.15A2.37,2.37,0,0,1,404.57,358Z" style="fill: rgb(38, 50, 56); transform-origin: 399.458px 358.417px;" id="elb2xoqjbz9hj" class="animable"></path><path d="M404.2,365.62c0,.14-23.59.26-52.67.26s-52.68-.12-52.68-.26,23.58-.26,52.68-.26S404.2,365.47,404.2,365.62Z" style="fill: rgb(38, 50, 56); transform-origin: 351.525px 365.62px;" id="elv1rmpor2g4" class="animable"></path></g><g id="freepik--qr-code--inject-4" class="animable" style="transform-origin: 351.98px 206.37px;"><polygon points="294.14 220.88 294.14 227.07 300.33 227.07 300.33 220.88 300.33 214.68 294.14 214.68 294.14 220.88" style="fill: rgb(38, 50, 56); transform-origin: 297.235px 220.875px;" id="el9h70aplfwqn" class="animable"></polygon><rect x="294.14" y="183.73" width="6.19" height="6.19" style="fill: rgb(38, 50, 56); transform-origin: 297.235px 186.825px;" id="elvgpld61wkb" class="animable"></rect><rect x="332.4" y="251.89" width="6.19" height="6.19" style="fill: rgb(38, 50, 56); transform-origin: 335.495px 254.985px;" id="el270e7h26ba" class="animable"></rect><polygon points="300.33 196.11 300.33 202.3 294.14 202.3 294.14 208.49 300.33 208.49 300.33 214.68 306.52 214.68 312.72 214.68 312.72 220.88 318.91 220.88 318.91 214.68 325.1 214.68 325.1 208.49 325.1 202.3 318.91 202.3 318.91 208.49 312.72 208.49 306.52 208.49 306.52 202.3 306.52 196.11 306.52 189.92 300.33 189.92 300.33 196.11" style="fill: rgb(38, 50, 56); transform-origin: 309.62px 205.4px;" id="el5atnxagqdgq" class="animable"></polygon><polygon points="312.72 183.73 306.52 183.73 306.52 189.92 312.72 189.92 318.91 189.92 318.91 183.73 312.72 183.73" style="fill: rgb(38, 50, 56); transform-origin: 312.715px 186.825px;" id="elx46d6tyx65d" class="animable"></polygon><polygon points="340.58 233.5 343.9 233.5 343.9 227.31 340.58 227.31 337.25 227.31 337.25 233.5 340.58 233.5" style="fill: rgb(38, 50, 56); transform-origin: 340.575px 230.405px;" id="elvr4b60sz2c9" class="animable"></polygon><rect x="318.91" y="189.92" width="6.19" height="6.19" style="fill: rgb(38, 50, 56); transform-origin: 322.005px 193.015px;" id="elz6cn1ry1psf" class="animable"></rect><rect x="362.25" y="214.68" width="6.19" height="6.19" style="fill: rgb(38, 50, 56); transform-origin: 365.345px 217.775px;" id="elwteq36zhoa" class="animable"></rect><rect x="368.44" y="146.58" width="6.19" height="6.19" style="fill: rgb(38, 50, 56); transform-origin: 371.535px 149.675px;" id="el34u9cgsob5k" class="animable"></rect><polygon points="337.48 196.11 337.48 189.92 343.67 189.92 343.67 183.73 337.48 183.73 337.48 177.54 331.29 177.54 331.29 183.73 325.1 183.73 325.1 189.92 331.29 189.92 331.29 196.11 331.29 202.3 331.29 208.49 331.29 214.68 337.48 214.68 337.48 208.49 337.48 202.3 343.67 202.3 343.67 196.11 337.48 196.11" style="fill: rgb(38, 50, 56); transform-origin: 334.385px 196.11px;" id="el4y1yft5jdl3" class="animable"></polygon><polygon points="368.44 258.02 374.63 258.02 374.63 251.83 368.44 251.83 362.25 251.83 362.25 258.02 368.44 258.02" style="fill: rgb(38, 50, 56); transform-origin: 368.44px 254.925px;" id="elinpkzwoh9tl" class="animable"></polygon><rect x="356.06" y="146.58" width="6.19" height="6.19" style="fill: rgb(38, 50, 56); transform-origin: 359.155px 149.675px;" id="el3xpivxznu3i" class="animable"></rect><polygon points="360.7 196.11 360.7 189.92 354.51 189.92 354.51 183.73 348.32 183.73 348.32 189.92 348.32 196.11 342.13 196.11 342.13 202.3 348.32 202.3 354.51 202.3 354.51 196.11 360.7 196.11" style="fill: rgb(38, 50, 56); transform-origin: 351.415px 193.015px;" id="el07re9o3js72t" class="animable"></polygon><rect x="389.45" y="183.73" width="6.19" height="6.19" style="fill: rgb(38, 50, 56); transform-origin: 392.545px 186.825px;" id="elfmphtge5u9k" class="animable"></rect><rect x="325.28" y="214.68" width="6.19" height="6.19" style="fill: rgb(38, 50, 56); transform-origin: 328.375px 217.775px;" id="elbozyfmernil" class="animable"></rect><polygon points="356.06 177.54 356.06 171.35 362.25 171.35 362.25 165.15 368.44 165.15 374.63 165.15 374.63 158.96 368.44 158.96 368.44 152.77 362.25 152.77 362.25 158.96 356.06 158.96 356.06 165.15 349.86 165.15 349.86 171.35 343.67 171.35 343.67 177.54 349.86 177.54 356.06 177.54" style="fill: rgb(38, 50, 56); transform-origin: 359.15px 165.155px;" id="ely33h1js5y2q" class="animable"></polygon><polygon points="356.06 220.88 356.06 214.68 362.25 214.68 362.25 208.49 356.06 208.49 349.86 208.49 349.86 214.68 343.67 214.68 343.67 220.88 349.86 220.88 356.06 220.88" style="fill: rgb(38, 50, 56); transform-origin: 352.96px 214.685px;" id="el8wzvxm62qsb" class="animable"></polygon><polygon points="374.63 245.64 374.63 239.44 368.44 239.44 362.25 239.44 362.25 233.25 356.06 233.25 356.06 239.44 349.86 239.44 349.86 245.64 343.67 245.64 337.48 245.64 337.48 251.83 343.67 251.83 349.86 251.83 356.06 251.83 356.06 245.64 362.25 245.64 362.25 251.83 368.44 251.83 368.44 245.64 374.63 245.64" style="fill: rgb(38, 50, 56); transform-origin: 356.055px 242.54px;" id="el2k1wxioxv2c" class="animable"></polygon><polygon points="349.86 152.77 349.86 146.58 343.67 146.58 337.48 146.58 337.48 152.77 331.29 152.77 331.29 158.96 337.48 158.96 343.67 158.96 343.67 152.77 349.86 152.77" style="fill: rgb(38, 50, 56); transform-origin: 340.575px 152.77px;" id="elkk4utq78qc" class="animable"></polygon><rect x="343.67" y="158.96" width="6.19" height="6.19" style="fill: rgb(38, 50, 56); transform-origin: 346.765px 162.055px;" id="elutp1575i4kk" class="animable"></rect><polygon points="365.34 183.73 359.15 183.73 359.15 189.92 359.15 196.11 359.15 202.3 365.34 202.3 371.53 202.3 371.53 196.11 365.34 196.11 365.34 189.92 371.53 189.92 371.53 183.73 377.72 183.73 377.72 177.54 371.53 177.54 371.53 171.35 365.34 171.35 365.34 177.54 365.34 183.73" style="fill: rgb(38, 50, 56); transform-origin: 368.435px 186.825px;" id="elsyv5af9y8be" class="animable"></polygon><rect x="337.48" y="165.15" width="6.19" height="6.19" style="fill: rgb(38, 50, 56); transform-origin: 340.575px 168.245px;" id="el61iosu150yw" class="animable"></rect><polygon points="362.25 227.07 362.25 233.26 368.44 233.26 374.63 233.26 374.63 227.07 380.82 227.07 387.01 227.07 387.01 220.88 380.82 220.88 374.63 220.88 368.44 220.88 368.44 227.07 362.25 227.07" style="fill: rgb(38, 50, 56); transform-origin: 374.63px 227.07px;" id="elrj7vpz59po7" class="animable"></polygon><rect x="389.45" y="202.3" width="6.19" height="6.19" style="fill: rgb(38, 50, 56); transform-origin: 392.545px 205.395px;" id="elm3iliptvtr" class="animable"></rect><rect x="368.44" y="208.49" width="6.19" height="6.19" style="fill: rgb(38, 50, 56); transform-origin: 371.535px 211.585px;" id="el6xwssf3hu8p" class="animable"></rect><polygon points="390.11 189.92 383.92 189.92 377.72 189.92 377.72 196.11 383.92 196.11 383.92 202.3 390.11 202.3 390.11 196.11 390.11 189.92" style="fill: rgb(38, 50, 56); transform-origin: 383.915px 196.11px;" id="el5b81mh7f2bi" class="animable"></polygon><rect x="380.82" y="208.49" width="6.19" height="6.19" style="fill: rgb(38, 50, 56); transform-origin: 383.915px 211.585px;" id="elq8oplzr5n1s" class="animable"></rect><path d="M318.91,245.76h18.58V220.87H312.6v6.2h-6.07v6.19h6.07v6.19h-6.07v6.19h6.07v.12h.12v6.07h-6.19v12.38h6.19V258h6.19V245.76Zm13.81-20.13v15.48H317.24V225.63Z" style="fill: rgb(38, 50, 56); transform-origin: 322.01px 242.54px;" id="elmu2dhgk796" class="animable"></path><polygon points="399.39 220.88 405.58 220.88 405.58 214.68 399.39 214.68 393.2 214.68 387.01 214.68 387.01 220.88 393.2 220.88 399.39 220.88" style="fill: rgb(38, 50, 56); transform-origin: 396.295px 217.78px;" id="el52gkr6svomo" class="animable"></polygon><polygon points="399.39 196.11 405.58 196.11 405.58 189.92 405.58 183.73 399.39 183.73 399.39 189.92 399.39 196.11" style="fill: rgb(38, 50, 56); transform-origin: 402.485px 189.92px;" id="elvbj6m6m7h4" class="animable"></polygon><polygon points="350.1 227.31 343.9 227.31 343.9 233.5 343.9 239.69 350.1 239.69 350.1 233.5 350.1 227.31" style="fill: rgb(38, 50, 56); transform-origin: 347px 233.5px;" id="el8xhjhbimfgx" class="animable"></polygon><rect x="405.58" y="220.88" width="6.19" height="6.19" style="fill: rgb(38, 50, 56); transform-origin: 408.675px 223.975px;" id="el4bgaffxy7sb" class="animable"></rect><polygon points="411.78 208.49 411.78 202.3 405.58 202.3 405.58 208.49 405.58 214.68 411.78 214.68 411.78 208.49" style="fill: rgb(38, 50, 56); transform-origin: 408.68px 208.49px;" id="el1t1mbaxtuyr" class="animable"></polygon><polygon points="300.33 251.83 294.14 251.83 294.14 258.02 294.14 264.21 300.33 264.21 300.33 258.02 300.33 251.83" style="fill: rgb(38, 50, 56); transform-origin: 297.235px 258.02px;" id="el1z9izpesi77" class="animable"></polygon><path d="M411.78,177.54v-31h-31v31Zm-26.32-4.65V151.22h21.67v21.67Z" style="fill: rgb(38, 50, 56); transform-origin: 396.28px 162.04px;" id="elg5exyi800ke" class="animable"></path><rect x="390.11" y="155.87" width="12.38" height="12.38" style="fill: rgb(38, 50, 56); transform-origin: 396.3px 162.06px;" id="elqroozyvfxm" class="animable"></rect><path d="M411.78,233.26h-31v30.95h31Zm-26.32,26.31V237.9h21.67v21.67Z" style="fill: rgb(38, 50, 56); transform-origin: 396.28px 248.735px;" id="elgat9wsqpshk" class="animable"></path><rect x="390.11" y="242.54" width="12.38" height="12.38" style="fill: rgb(38, 50, 56); transform-origin: 396.3px 248.73px;" id="el6fstlrzhq8w" class="animable"></rect><path d="M294.07,146.58v31H325v-31Zm26.31,4.64v21.67H298.71V151.22Z" style="fill: rgb(38, 50, 56); transform-origin: 309.535px 162.08px;" id="elcmfwh5lfvb9" class="animable"></path><rect x="303.35" y="155.87" width="12.38" height="12.38" style="fill: rgb(38, 50, 56); transform-origin: 309.54px 162.06px;" id="elvzi0wdvr5v" class="animable"></rect><path d="M285.24,168.16v-22a8.09,8.09,0,0,1,1.74-5.6,7.63,7.63,0,0,1,6-2.5h23.12a.69.69,0,0,0,0-1.38H293.26a9.7,9.7,0,0,0-5.51,1.39,8.75,8.75,0,0,0-3.9,7.22c-.06,3.62,0,7.25,0,10.86v12a.7.7,0,0,0,1.39,0Z" style="fill: rgb(230, 33, 70); transform-origin: 300.307px 152.717px;" id="elkg62wvlapll" class="animable"></path><path d="M314.1,274.67h-22a8.14,8.14,0,0,1-5.6-1.74,7.65,7.65,0,0,1-2.5-6V243.78a.69.69,0,0,0-1.38,0v22.87a9.72,9.72,0,0,0,1.39,5.51,8.73,8.73,0,0,0,7.22,3.89c3.62.06,7.24,0,10.86,0h12a.69.69,0,0,0,0-1.38Z" style="fill: rgb(230, 33, 70); transform-origin: 298.694px 259.583px;" id="el5wp6z7rteod" class="animable"></path><path d="M419.94,243.56v22a8.09,8.09,0,0,1-1.74,5.6,7.62,7.62,0,0,1-6,2.5H389.05a.69.69,0,0,0,0,1.38h22.87a9.7,9.7,0,0,0,5.51-1.39,8.73,8.73,0,0,0,3.89-7.22c.07-3.62,0-7.24,0-10.86v-12a.69.69,0,0,0-1.38,0Z" style="fill: rgb(230, 33, 70); transform-origin: 404.856px 258.966px;" id="elu4vl2xekfak" class="animable"></path><path d="M389.45,138.07h22a8.09,8.09,0,0,1,5.6,1.75,7.58,7.58,0,0,1,2.5,6V169a.69.69,0,0,0,1.38,0V146.1a9.73,9.73,0,0,0-1.39-5.52,8.73,8.73,0,0,0-7.22-3.89c-3.62-.06-7.24,0-10.86,0h-12a.69.69,0,0,0,0,1.38Z" style="fill: rgb(230, 33, 70); transform-origin: 404.856px 153.177px;" id="elis2ex6c80nb" class="animable"></path></g><defs>     <filter id="active" height="200%">         <feMorphology in="SourceAlpha" result="DILATED" operator="dilate" radius="2"></feMorphology>                <feFlood flood-color="#32DFEC" flood-opacity="1" result="PINK"></feFlood>        <feComposite in="PINK" in2="DILATED" operator="in" result="OUTLINE"></feComposite>        <feMerge>            <feMergeNode in="OUTLINE"></feMergeNode>            <feMergeNode in="SourceGraphic"></feMergeNode>        </feMerge>    </filter>    <filter id="hover" height="200%">        <feMorphology in="SourceAlpha" result="DILATED" operator="dilate" radius="2"></feMorphology>                <feFlood flood-color="#ff0000" flood-opacity="0.5" result="PINK"></feFlood>        <feComposite in="PINK" in2="DILATED" operator="in" result="OUTLINE"></feComposite>        <feMerge>            <feMergeNode in="OUTLINE"></feMergeNode>            <feMergeNode in="SourceGraphic"></feMergeNode>        </feMerge>            <feColorMatrix type="matrix" values="0   0   0   0   0                0   1   0   0   0                0   0   0   0   0                0   0   0   1   0 "></feColorMatrix>    </filter></defs></svg>